<svg width="21" height="19" fill="none" xmlns="http://www.w3.org/2000/svg"><path d="M19.42 1.605a5.338 5.338 0 0 0-7.632 0L1.105 12.454a3.882 3.882 0 0 0 0 5.424 3.74 3.74 0 0 0 5.342 0L17.13 7.03a2.223 2.223 0 0 0 0-3.1 2.142 2.142 0 0 0-3.052 0l-9.158 9.3a.548.548 0 0 0-.123.6.55.55 0 0 0 .295.3.534.534 0 0 0 .592-.125l9.157-9.3a1.054 1.054 0 0 1 1.526 0c.43.437.43 1.114 0 1.55L5.684 17.104a2.652 2.652 0 0 1-3.816 0 2.751 2.751 0 0 1 0-3.875l10.684-10.85a4.25 4.25 0 0 1 6.105 0 4.41 4.41 0 0 1 0 6.2l-9.158 9.3a.549.549 0 0 0-.123.6.549.549 0 0 0 .295.299.531.531 0 0 0 .591-.125l9.158-9.299c2.107-2.14 2.107-5.61 0-7.75Z" fill="#fff"/></svg>